<svg xmlns="http://www.w3.org/2000/svg" viewBox="0 0 24 24" fill="none" stroke="currentColor" stroke-width="2" stroke-linecap="round" stroke-linejoin="round"><path d="M14.5 3.104V8.82a2.25 2.25 0 0 1-.659 1.591L5 19.5M14.25 3.104q.377.034.75.082m-.75-.082a24.3 24.3 0 0 1 4.5 0m0 0v5.714c0 .597.237 1.17.659 1.591L19.8 15.3M14.25 3.104q.377.034.75.082M19.8 15.3l1.57.393a9.07 9.07 0 0 1-6.23.693 9.07 9.07 0 0 0-6.23-.693L5 14.5m14.8.8l1.402 1.402c1.232 1.232.65 3.318-1.067 3.611a48.3 48.3 0 0 1-8.135.687 48 48 0 0 1-8.135-.687c-1.718-.293-2.3-2.379-1.067-3.61L5 14.5"></path></svg>
